HIERARCHY
ROOT Hips
{
	OFFSET 0.00000 0.00000 0.00000
	CHANNELS 6 Xposition Yposition Zposition Zrotation Yrotation Xrotation 
	JOINT LHipJoint
	{
		OFFSET 0 0 0
		CHANNELS 3 Zrotation Yrotation Xrotation
		JOINT LeftHip
		{
			OFFSET 1.80322 -1.53100 0.99595
			CHANNELS 3 Zrotation Yrotation Xrotation
			JOINT LeftKnee
			{
				OFFSET 2.25177 -6.18669 0.00000
				CHANNELS 3 Zrotation Yrotation Xrotation
				JOINT LeftAnkle
				{
					OFFSET 2.26601 -6.22582 0.00000
					CHANNELS 3 Zrotation Yrotation Xrotation
					JOINT LeftToe
					{
						OFFSET 0.23701 -0.65119 2.15848
						CHANNELS 3 Zrotation Yrotation Xrotation
						End Site
						{
							OFFSET 0.00000 -0.00000 1.12949
						}
					}
				}
			}
		}
	}
	JOINT RHipJoint
	{
		OFFSET 0 0 0
		CHANNELS 3 Zrotation Yrotation Xrotation
		JOINT RightHip
		{
			OFFSET -1.93977 -1.53100 0.99595
			CHANNELS 3 Zrotation Yrotation Xrotation
			JOINT RightKnee
			{
				OFFSET -2.28036 -6.26523 0.00000
				CHANNELS 3 Zrotation Yrotation Xrotation
				JOINT RightAnkle
				{
					OFFSET -2.25490 -6.19528 0.00000
					CHANNELS 3 Zrotation Yrotation Xrotation
					JOINT RightToe
					{
						OFFSET -0.28375 -0.77960 2.23137
						CHANNELS 3 Zrotation Yrotation Xrotation
						End Site
						{
							OFFSET -0.00000 -0.00000 1.17899
						}
					}
				}
			}
		}
	}
	JOINT lowerback
	{
		OFFSET 0 0 0
		CHANNELS 3 Zrotation Yrotation Xrotation
		JOINT Chest
		{
			OFFSET -0.00088 2.12090 -0.02806
			CHANNELS 3 Zrotation Yrotation Xrotation
			JOINT Chest2
			{
				OFFSET -0.00286 2.09666 0.12974
				CHANNELS 3 Zrotation Yrotation Xrotation
				JOINT lowerneck
				{
					OFFSET 0 0 0
					CHANNELS 3 Zrotation Yrotation Xrotation
					JOINT Neck
					{
						OFFSET 0.07328 1.83526 0.07290
						CHANNELS 3 Zrotation Yrotation Xrotation
						JOINT Head
						{
							OFFSET -0.06683 1.74974 -0.49542
							CHANNELS 3 Zrotation Yrotation Xrotation
							End Site
							{
								OFFSET -0.03398 1.85163 -0.17573
							}
						}
					}
				}
				JOINT LeftCollar
				{
					OFFSET 0 0 0
					CHANNELS 3 Zrotation Yrotation Xrotation
					JOINT LeftShoulder
					{
						OFFSET 3.02113 1.18018 0.40602
CHANNELS 3 Zrotation Xrotation Yrotation
						JOINT LeftElbow
						{
OFFSET 0 -4.585380 -0.000000
CHANNELS 3 Zrotation Xrotation Yrotation
							JOINT LeftWrist
							{
OFFSET 0 -2.689350 -0.000000
CHANNELS 3 Zrotation Xrotation Yrotation
								JOINT lhand
								{
									OFFSET 0 0 0
CHANNELS 3 Zrotation Xrotation Yrotation
									JOINT LFingers
									{
OFFSET 0 -0.585060 -0.000000
CHANNELS 3 Zrotation Xrotation Yrotation
										End Site
										{
OFFSET 0 -0.471690 -0.000000
										}
									}
								}
								JOINT LThumb
								{
OFFSET 0 0.000000 0.000000
CHANNELS 3 Zrotation Xrotation Yrotation
									End Site
									{
OFFSET 0 -0.478890 0.478890
									}
								}
							}
						}
					}
				}
				JOINT RightCollar
				{
					OFFSET 0 0 0
					CHANNELS 3 Zrotation Yrotation Xrotation
					JOINT RightShoulder
					{
						OFFSET -2.95074 1.18843 0.31430
CHANNELS 3 Zrotation Xrotation Yrotation
						JOINT RightElbow
						{
OFFSET 0 -4.474500 -0.000000
CHANNELS 3 Zrotation Xrotation Yrotation
							JOINT RightWrist
							{
OFFSET 0 -2.938960 -0.000000
CHANNELS 3 Zrotation Xrotation Yrotation
								JOINT rhand
								{
									OFFSET 0 0 0
CHANNELS 3 Zrotation Xrotation Yrotation
									JOINT RFingers
									{
OFFSET 0 -0.405090 -0.000000
CHANNELS 3 Zrotation Xrotation Yrotation
										End Site
										{
OFFSET 0 -0.326600 -0.000000
										}
									}
								}
								JOINT RThumb
								{
OFFSET 0 0.000000 0.000000
CHANNELS 3 Zrotation Xrotation Yrotation
									End Site
									{
OFFSET 0 -0.331580 0.331580
									}
								}
							}
						}
					}
				}
			}
		}
	}
}
MOTION
Frames: 10
Frame Time: 0.008333333333333333
-0.298000 14.899900 -2.180600 0.527800 1.548400 9.785500 0.000000 0.000000 0.000000 -14.517000 -8.543400 -30.954500 6.928600 15.271500 48.603900 1.803200 -1.435100 -24.994100 0.387900 -3.999300 -11.074700 0.000000 0.000000 0.000000 13.740400 3.276600 -31.542900 -7.520100 -15.754700 50.815100 -2.478900 0.349700 -29.734900 -0.332500 3.706000 -10.251000 -0.386800 -2.384500 4.192600 0.781400 -3.186900 -5.983400 1.407600 -1.509700 -8.577000 -4.802900 -10.002500 -10.529700 -1.293600 -12.827500 23.770700 -1.115200 -6.566100 9.456000 -0.000000 0.000000 0.000000 46.034500 -52.294700 -11.585400 69.517800 -58.353900 42.359900 -35.837500 -1.669400 -20.891100 0.000000 0.000000 0.000000 -7.125000 0.000000 0.000000 -54.272400 43.402300 -3.229500 -0.000000 0.000000 0.000000 -38.258800 -63.141300 20.513200 -48.504800 -52.374400 -24.985000 36.096300 -18.423800 30.055000 0.000000 0.000000 0.000000 7.125000 0.000000 -0.000000 62.908500 49.835200 -11.664500
-0.297596 14.899091 -2.176268 0.522081 1.523909 9.788792 0.000000 0.000000 0.000000 -14.512206 -8.529768 -30.952594 6.935936 15.277681 48.631626 1.806088 -1.430999 -25.015646 0.388131 -4.000571 -11.078339 0.000000 0.000000 0.000000 13.741729 3.286015 -31.537066 -7.524143 -15.757819 50.829887 -2.482655 0.388055 -29.746222 -0.329843 3.691097 -10.209237 -0.389226 -2.384500 4.164527 0.789256 -3.186438 -5.988772 1.415860 -1.509238 -8.565736 -4.810178 -9.988406 -10.510118 -1.276387 -12.810922 23.747537 -1.104398 -6.557493 9.445718 0.000000 0.000000 0.000000 46.033460 -52.295797 -11.557269 69.493251 -58.349799 42.338990 -35.952275 -1.759915 -20.908198 0.000000 0.000000 0.000000 -7.125000 0.000000 0.000000 -54.342986 43.394618 -3.254396 0.000000 0.000000 0.000000 -38.238467 -63.144015 20.520767 -48.460380 -52.355338 -24.949822 36.154872 -18.574677 30.102539 0.000000 0.000000 0.000000 7.125000 0.000000 0.000000 62.994336 49.855186 -11.740632
-0.297052 14.898267 -2.171889 0.518164 1.502538 9.791091 0.000000 0.000000 0.000000 -14.509290 -8.521585 -30.947381 6.943815 15.284343 48.661479 1.809240 -1.430127 -25.038262 0.388253 -4.001267 -11.080348 0.000000 0.000000 0.000000 13.741567 3.287730 -31.532303 -7.528854 -15.761482 50.847190 -2.486223 0.422947 -29.757434 -0.329033 3.686504 -10.196384 -0.388733 -2.385199 4.137308 0.792795 -3.187016 -5.991722 1.418050 -1.509645 -8.552734 -4.809103 -9.972666 -10.508888 -1.261238 -12.792807 23.741810 -1.097090 -6.547381 9.444146 0.000000 0.000000 0.000000 46.038258 -52.298867 -11.528828 69.464370 -58.344968 42.314400 -36.067391 -1.865675 -20.927376 0.000000 0.000000 0.000000 -7.125000 0.000000 0.000000 -54.415312 43.388457 -3.276404 0.000000 0.000000 0.000000 -38.218818 -63.149850 20.518910 -48.422140 -52.338931 -24.919535 36.253935 -18.768250 30.168988 0.000000 0.000000 0.000000 7.125000 0.000000 0.000000 63.125041 49.880001 -11.845269
-0.296127 14.897401 -2.167383 0.519146 1.489657 9.790687 0.000000 0.000000 0.000000 -14.511485 -8.528228 -30.933171 6.953173 15.292314 48.697119 1.813110 -1.438041 -25.063794 0.388080 -4.000401 -11.077922 0.000000 0.000000 0.000000 13.737350 3.268495 -31.530455 -7.535382 -15.766623 50.871335 -2.489284 0.448420 -29.768352 -0.333250 3.709955 -10.262176 -0.380300 -2.387798 4.112413 0.784593 -3.190424 -5.988083 1.403724 -1.512418 -8.535000 -4.785305 -9.952449 -10.557582 -1.251707 -12.770511 23.783515 -1.099285 -6.533171 9.466270 0.000000 0.000000 0.000000 46.058937 -52.307300 -11.499543 69.423705 -58.338152 42.279800 -36.183437 -2.012913 -20.952214 0.000000 0.000000 0.000000 -7.125000 0.000000 0.000000 -54.492367 43.386435 -3.290556 0.000000 0.000000 0.000000 -38.201027 -63.164176 20.491415 -48.400710 -52.329747 -24.902553 36.463152 -19.077975 30.286882 0.000000 0.000000 0.000000 7.125000 0.000000 0.000000 63.377812 49.917951 -12.027453
-0.295638 14.896286 -2.163406 0.522643 1.479011 9.795282 0.000000 0.000000 0.000000 -14.514456 -8.536175 -30.928836 6.960978 15.298950 48.726735 1.815707 -1.432974 -25.083549 0.390857 -4.014408 -11.117323 0.000000 0.000000 0.000000 13.730121 3.255750 -31.538232 -7.541412 -15.771360 50.893523 -2.491228 0.470633 -29.773524 -0.335852 3.724340 -10.302506 -0.382672 -2.392074 4.093013 0.783408 -3.196503 -5.996958 1.403807 -1.515315 -8.533041 -4.779920 -9.940367 -10.551129 -1.237115 -12.758523 23.775506 -1.093127 -6.525793 9.462651 0.000000 0.000000 0.000000 46.061917 -52.303841 -11.480131 69.391548 -58.332764 42.252435 -36.302712 -2.123230 -20.970780 0.000000 0.000000 0.000000 -7.125000 0.000000 0.000000 -54.565635 43.378979 -3.315793 0.000000 0.000000 0.000000 -38.164512 -63.163037 20.494350 -48.375585 -52.318948 -24.882652 36.591324 -19.256288 30.310441 0.000000 0.000000 0.000000 7.125000 0.000000 0.000000 63.481130 49.910379 -12.052143
-0.295522 14.894957 -2.159882 0.528304 1.470289 9.804177 0.000000 0.000000 0.000000 -14.518095 -8.545244 -30.932995 6.967447 15.304437 48.751169 1.817209 -1.416743 -25.098337 0.396171 -4.041210 -11.192703 0.000000 0.000000 0.000000 13.720302 3.248587 -31.554290 -7.547015 -15.775750 50.914029 -2.492210 0.490042 -29.773755 -0.337065 3.730925 -10.320932 -0.394341 -2.397793 4.078341 0.788260 -3.204878 -6.016597 1.416284 -1.518318 -8.544652 -4.790375 -9.935284 -10.497236 -1.218169 -12.755404 23.724732 -1.079784 -6.524291 9.436889 0.000000 0.000000 0.000000 46.049671 -52.290151 -11.469214 69.366710 -58.328605 42.231294 -36.424765 -2.201788 -20.983950 0.000000 0.000000 0.000000 -7.125000 0.000000 0.000000 -54.635643 43.366849 -3.350566 0.000000 0.000000 0.000000 -38.111890 -63.148596 20.523463 -48.347281 -52.306760 -24.860240 36.649780 -19.321561 30.252852 0.000000 0.000000 0.000000 7.125000 0.000000 0.000000 63.455888 49.863649 -11.941353
-0.299692 14.892790 -2.156172 0.485757 1.384434 9.811909 0.000000 0.000000 0.000000 -14.454430 -8.463812 -30.968081 6.975267 15.311043 48.780726 1.818571 -1.420587 -25.106882 0.400041 -4.060606 -11.247310 0.000000 0.000000 0.000000 13.773827 3.376034 -31.555863 -7.552897 -15.780326 50.935653 -2.489233 0.463198 -29.763599 -0.335390 3.721720 -10.295110 -0.429484 -2.374586 4.051373 0.810439 -3.174827 -6.024685 1.454705 -1.500688 -8.535069 -4.790537 -9.925264 -10.472035 -1.197359 -12.747441 23.707541 -1.069794 -6.518830 9.427522 0.000000 0.000000 0.000000 46.050328 -52.280746 -11.458483 69.364415 -58.328219 42.229343 -36.521294 -2.306569 -21.016077 0.000000 0.000000 0.000000 -7.125000 0.000000 0.000000 -54.708680 43.373909 -3.345143 0.000000 0.000000 0.000000 -38.075523 -63.138534 20.534130 -48.314692 -52.292709 -24.834428 36.758866 -19.468530 30.269321 0.000000 0.000000 0.000000 7.125000 0.000000 0.000000 63.539777 49.854879 -11.956044
-0.304027 14.890691 -2.152305 0.439159 1.293287 9.816808 0.000000 0.000000 0.000000 -14.386625 -8.375501 -31.000616 6.982995 15.317565 48.809938 1.819948 -1.426269 -25.115084 0.403183 -4.076318 -11.291555 0.000000 0.000000 0.000000 13.832560 3.509376 -31.553011 -7.558734 -15.784860 50.957128 -2.486156 0.435783 -29.752976 -0.333747 3.712682 -10.269760 -0.462230 -2.348167 4.023843 0.831158 -3.140336 -6.028402 1.489576 -1.481163 -8.520719 -4.784706 -9.915395 -10.461433 -1.177622 -12.740215 23.701631 -1.062437 -6.513048 9.424306 0.000000 0.000000 0.000000 46.055389 -52.277406 -11.448157 69.364930 -58.328301 42.229786 -36.614354 -2.417261 -21.051076 0.000000 0.000000 0.000000 -7.125000 0.000000 0.000000 -54.782304 43.383788 -3.333856 0.000000 0.000000 0.000000 -38.047861 -63.129653 20.532495 -48.281855 -52.278549 -24.808424 36.878318 -19.631858 30.303405 0.000000 0.000000 0.000000 7.125000 0.000000 0.000000 63.648584 49.855434 -12.000825
-0.297731 14.891904 -2.147049 0.485196 1.364970 9.790294 0.000000 0.000000 0.000000 -14.466800 -8.470001 -30.910332 6.985595 15.319760 48.819758 1.821912 -1.395250 -25.137496 0.401623 -4.068578 -11.269663 0.000000 0.000000 0.000000 13.768155 3.317430 -31.538512 -7.563182 -15.788326 50.973475 -2.493549 0.538023 -29.767302 -0.341025 3.752365 -10.381011 -0.396091 -2.367691 4.025749 0.782695 -3.164770 -6.012459 1.404087 -1.499301 -8.510321 -4.735550 -9.921980 -10.545709 -1.176582 -12.756389 23.735306 -1.077571 -6.515012 9.448335 0.000000 0.000000 0.000000 46.076530 -52.336035 -11.442265 69.333391 -58.322986 42.202984 -36.740161 -2.523198 -21.065402 0.000000 0.000000 0.000000 -7.125000 0.000000 0.000000 -54.854219 43.371658 -3.369207 0.000000 0.000000 0.000000 -38.079284 -63.122375 20.433951 -48.258634 -52.268556 -24.790113 36.975707 -19.755067 30.335405 0.000000 0.000000 0.000000 7.125000 0.000000 0.000000 63.741525 49.858554 -12.045071
-0.293481 14.892521 -2.141832 0.521082 1.402524 9.769761 0.000000 0.000000 0.000000 -14.527664 -8.528027 -30.840591 6.988850 15.322511 48.832100 1.824352 -1.370529 -25.161517 0.402011 -4.070572 -11.275226 0.000000 0.000000 0.000000 13.718788 3.188242 -31.524649 -7.567828 -15.791951 50.990577 -2.499215 0.616086 -29.778488 -0.346297 3.781102 -10.461589 -0.364858 -2.382844 4.023861 0.755271 -3.184654 -6.012013 1.359979 -1.512054 -8.511546 -4.716313 -9.917678 -10.570445 -1.171351 -12.754941 23.750884 -1.080567 -6.511810 9.457246 0.000000 0.000000 0.000000 46.064295 -52.348892 -11.447161 69.314031 -58.319738 42.186532 -36.850493 -2.609110 -21.072217 0.000000 0.000000 0.000000 -7.125000 0.000000 0.000000 -54.912386 43.356548 -3.409207 0.000000 0.000000 0.000000 -38.066544 -63.109137 20.410205 -48.235036 -52.258384 -24.771484 37.082114 -19.888248 30.364287 0.000000 0.000000 0.000000 7.125000 0.000000 0.000000 63.836631 49.858117 -12.082563
